<!DOCTYPE svg PUBLIC "-//W3C//DTD SVG 1.1//EN" "http://www.w3.org/Graphics/SVG/1.1/DTD/svg11.dtd">
<!-- Uploaded to: SVG Repo, www.svgrepo.com, Transformed by: SVG Repo Mixer Tools -->
<svg fill="#469A16" width="800px" height="800px" viewBox="0 0 256 256" id="Flat" xmlns="http://www.w3.org/2000/svg" stroke="#469A16">
<g id="SVGRepo_bgCarrier" stroke-width="0"/>
<g id="SVGRepo_tracerCarrier" stroke-linecap="round" stroke-linejoin="round"/>
<g id="SVGRepo_iconCarrier"> <path d="M152,112v64a4,4,0,0,1-8,0V148H100a4,4,0,0,1-3.77246-5.33105l23.998-68a4.00039,4.00039,0,0,1,7.54492,2.6621L105.65332,140H144V112a4,4,0,0,1,8,0Zm68-64V208a12.01312,12.01312,0,0,1-12,12H48a12.01312,12.01312,0,0,1-12-12V48A12.01343,12.01343,0,0,1,48,36H208A12.01343,12.01343,0,0,1,220,48Zm-8,0a4.00427,4.00427,0,0,0-4-4H48a4.00427,4.00427,0,0,0-4,4V208a4.004,4.004,0,0,0,4,4H208a4.004,4.004,0,0,0,4-4Z"/> </g>
</svg>